<svg xmlns="http://www.w3.org/2000/svg" width="0" height="0" style="position:absolute" aria-hidden="true">
    <defs>
        <symbol id="i-plaster" viewBox="0 0 24 24" fill="none" stroke="currentColor" stroke-width="1.8" stroke-linecap="round" stroke-linejoin="round"><path d="M3 12h18M3 7h18M3 17h18"/><path d="M7 7v10M12 7v10M17 7v10"/></symbol>
        <symbol id="i-paint" viewBox="0 0 24 24" fill="none" stroke="currentColor" stroke-width="1.8" stroke-linecap="round" stroke-linejoin="round"><rect x="4" y="4" width="14" height="5" rx="1"/><path d="M18 6.5h2a1 1 0 0 1 1 1V11a1 1 0 0 1-1 1h-8"/><path d="M12 12v4a2 2 0 0 0 2 2h0a2 2 0 0 0 2-2"/><path d="M10 18h4v3h-4z"/></symbol>
        <symbol id="i-tiles" viewBox="0 0 24 24" fill="none" stroke="currentColor" stroke-width="1.8" stroke-linecap="round" stroke-linejoin="round"><rect x="3" y="3" width="7" height="7"/><rect x="14" y="3" width="7" height="7"/><rect x="3" y="14" width="7" height="7"/><rect x="14" y="14" width="7" height="7"/></symbol>
        <symbol id="i-drywall" viewBox="0 0 24 24" fill="none" stroke="currentColor" stroke-width="1.8" stroke-linecap="round" stroke-linejoin="round"><rect x="3" y="3" width="18" height="18" rx="1"/><path d="M3 9h18M3 15h18M9 3v18M15 3v18"/></symbol>
        <symbol id="i-floor" viewBox="0 0 24 24" fill="none" stroke="currentColor" stroke-width="1.8" stroke-linecap="round" stroke-linejoin="round"><path d="M3 6h7v5H3zM14 6h7v5h-7zM3 13h7v5H3zM14 13h7v5h-7z"/></symbol>
        <symbol id="i-finish" viewBox="0 0 24 24" fill="none" stroke="currentColor" stroke-width="1.8" stroke-linecap="round" stroke-linejoin="round"><path d="M12 2l2.5 6.5L21 10l-5 4 1.5 7L12 17.5 6.5 21 8 14l-5-4 6.5-1.5L12 2z"/></symbol>
        <symbol id="i-facade" viewBox="0 0 24 24" fill="none" stroke="currentColor" stroke-width="1.8" stroke-linecap="round" stroke-linejoin="round"><path d="M3 21V8l9-5 9 5v13"/><path d="M9 21v-7h6v7"/><path d="M3 21h18"/></symbol>
        <symbol id="i-pavement" viewBox="0 0 24 24" fill="none" stroke="currentColor" stroke-width="1.8" stroke-linecap="round" stroke-linejoin="round"><path d="M3 8h6v5H3zM9 13h6v5H9zM15 8h6v5h-6zM3 18h6M15 18h6M9 3h6"/></symbol>
        <symbol id="i-fence" viewBox="0 0 24 24" fill="none" stroke="currentColor" stroke-width="1.8" stroke-linecap="round" stroke-linejoin="round"><path d="M4 8l2-3 2 3v13H4zM10 8l2-3 2 3v13h-4zM16 8l2-3 2 3v13h-4z"/><path d="M4 13h16M4 17h16"/></symbol>
        <symbol id="i-screed" viewBox="0 0 24 24" fill="none" stroke="currentColor" stroke-width="1.8" stroke-linecap="round" stroke-linejoin="round"><path d="M3 16h18l-2 4H5z"/><path d="M6 16V8l6-4 6 4v8"/></symbol>
        <symbol id="i-concrete" viewBox="0 0 24 24" fill="none" stroke="currentColor" stroke-width="1.8" stroke-linecap="round" stroke-linejoin="round"><circle cx="12" cy="12" r="9"/><path d="M12 3v18M3 12h18M5.6 5.6l12.8 12.8M5.6 18.4L18.4 5.6"/></symbol>

        <symbol id="i-target" viewBox="0 0 24 24" fill="none" stroke="currentColor" stroke-width="1.8" stroke-linecap="round" stroke-linejoin="round"><circle cx="12" cy="12" r="9"/><circle cx="12" cy="12" r="5"/><circle cx="12" cy="12" r="1.5" fill="currentColor"/></symbol>
        <symbol id="i-gem" viewBox="0 0 24 24" fill="none" stroke="currentColor" stroke-width="1.8" stroke-linecap="round" stroke-linejoin="round"><path d="M6 3h12l3 6-9 12L3 9z"/><path d="M3 9h18M9 3l3 6 3-6"/></symbol>
        <symbol id="i-clock" viewBox="0 0 24 24" fill="none" stroke="currentColor" stroke-width="1.8" stroke-linecap="round" stroke-linejoin="round"><circle cx="12" cy="12" r="9"/><path d="M12 7v5l3 2"/></symbol>
        <symbol id="i-price" viewBox="0 0 24 24" fill="none" stroke="currentColor" stroke-width="1.8" stroke-linecap="round" stroke-linejoin="round"><path d="M12 3v18M16 7H10a3 3 0 0 0 0 6h4a3 3 0 0 1 0 6H7"/></symbol>
        <symbol id="i-sparkle" viewBox="0 0 24 24" fill="none" stroke="currentColor" stroke-width="1.8" stroke-linecap="round" stroke-linejoin="round"><path d="M12 3v4M12 17v4M3 12h4M17 12h4M5.6 5.6l2.8 2.8M15.6 15.6l2.8 2.8M5.6 18.4l2.8-2.8M15.6 8.4l2.8-2.8"/></symbol>
        <symbol id="i-chat" viewBox="0 0 24 24" fill="none" stroke="currentColor" stroke-width="1.8" stroke-linecap="round" stroke-linejoin="round"><path d="M21 12a8 8 0 0 1-11.6 7.1L4 20l.9-5.4A8 8 0 1 1 21 12z"/></symbol>

        <symbol id="i-whatsapp" viewBox="0 0 24 24" fill="currentColor"><path d="M17.47 14.38c-.3-.15-1.77-.87-2.04-.97-.27-.1-.47-.15-.67.15s-.77.97-.94 1.17c-.17.2-.35.22-.65.07-.3-.15-1.27-.47-2.42-1.5-.9-.8-1.5-1.79-1.67-2.09-.17-.3-.02-.46.13-.61.13-.13.3-.35.45-.52.15-.17.2-.3.3-.5.1-.2.05-.37-.02-.52-.07-.15-.67-1.62-.92-2.22-.24-.58-.49-.5-.67-.51-.17 0-.37-.02-.57-.02s-.52.07-.8.37c-.27.3-1.05 1.02-1.05 2.5s1.07 2.9 1.22 3.1c.15.2 2.12 3.24 5.14 4.54.72.31 1.28.5 1.71.64.72.23 1.37.2 1.89.12.58-.09 1.77-.72 2.02-1.42.25-.7.25-1.3.17-1.42-.07-.12-.27-.2-.57-.35z"/><path d="M12.04 2C6.58 2 2.13 6.45 2.13 11.91c0 1.75.46 3.45 1.32 4.95L2 22l5.25-1.38c1.45.79 3.08 1.21 4.79 1.21 5.46 0 9.91-4.45 9.91-9.91S17.5 2 12.04 2z"/></symbol>
    </defs>
</svg>
